HIERARCHY
ROOT Hips
{
	OFFSET 0.00000 0.00000 0.00000
	CHANNELS 6 Xposition Yposition Zposition Zrotation Yrotation Xrotation 
	JOINT LHipJoint
	{
		OFFSET 0 0 0
		CHANNELS 3 Zrotation Yrotation Xrotation
		JOINT LeftUpLeg
		{
			OFFSET 1.26600 -1.82114 0.91038
			CHANNELS 3 Zrotation Yrotation Xrotation
			JOINT LeftLeg
			{
				OFFSET 2.50076 -6.87080 0.00000
				CHANNELS 3 Zrotation Yrotation Xrotation
				JOINT LeftFoot
				{
					OFFSET 2.57364 -7.07102 0.00000
					CHANNELS 3 Zrotation Yrotation Xrotation
					JOINT LeftToeBase
					{
						OFFSET 0.13572 -0.37290 1.97004
						CHANNELS 3 Zrotation Yrotation Xrotation
						End Site
						{
							OFFSET 0.00000 -0.00000 1.01383
						}
					}
				}
			}
		}
	}
	JOINT RHipJoint
	{
		OFFSET 0 0 0
		CHANNELS 3 Zrotation Yrotation Xrotation
		JOINT RightUpLeg
		{
			OFFSET -1.20803 -1.82114 0.91038
			CHANNELS 3 Zrotation Yrotation Xrotation
			JOINT RightLeg
			{
				OFFSET -2.54916 -7.00377 0.00000
				CHANNELS 3 Zrotation Yrotation Xrotation
				JOINT RightFoot
				{
					OFFSET -2.56374 -7.04382 0.00000
					CHANNELS 3 Zrotation Yrotation Xrotation
					JOINT RightToeBase
					{
						OFFSET -0.23520 -0.64621 2.09921
						CHANNELS 3 Zrotation Yrotation Xrotation
						End Site
						{
							OFFSET -0.00000 -0.00000 1.10065
						}
					}
				}
			}
		}
	}
	JOINT LowerBack
	{
		OFFSET 0 0 0
		CHANNELS 3 Zrotation Yrotation Xrotation
		JOINT Spine
		{
			OFFSET 0.05492 2.10797 -0.12074
			CHANNELS 3 Zrotation Yrotation Xrotation
			JOINT Spine1
			{
				OFFSET 0.04577 2.11592 -0.04483
				CHANNELS 3 Zrotation Yrotation Xrotation
				JOINT Neck
				{
					OFFSET 0 0 0
					CHANNELS 3 Zrotation Yrotation Xrotation
					JOINT Neck1
					{
						OFFSET -0.10759 1.80167 0.15770
						CHANNELS 3 Zrotation Yrotation Xrotation
						JOINT Head
						{
							OFFSET 0.09237 1.77509 -0.40848
							CHANNELS 3 Zrotation Yrotation Xrotation
							End Site
							{
								OFFSET 0.03805 1.84093 -0.15754
							}
						}
					}
				}
				JOINT LeftShoulder
				{
					OFFSET 0 0 0
					CHANNELS 3 Zrotation Yrotation Xrotation
					JOINT LeftArm
					{
						OFFSET 3.42372 1.09575 -0.28209
						CHANNELS 3 Zrotation Yrotation Xrotation
						JOINT LeftForeArm
						{
							OFFSET 4.95681 -0.00000 0.00000
							CHANNELS 3 Zrotation Yrotation Xrotation
							JOINT LeftHand
							{
								OFFSET 3.40915 -0.00000 0.00000
								CHANNELS 3 Zrotation Yrotation Xrotation
								JOINT LeftFingerBase
								{
									OFFSET 0 0 0
									CHANNELS 3 Zrotation Yrotation Xrotation
									JOINT LeftHandIndex1
									{
										OFFSET 0.61640 -0.00000 0.00000
										CHANNELS 3 Zrotation Yrotation Xrotation
										End Site
										{
											OFFSET 0.49696 -0.00000 0.00000
										}
									}
								}
								JOINT LThumb
								{
									OFFSET 0 0 0
									CHANNELS 3 Zrotation Yrotation Xrotation
									End Site
									{
										OFFSET 0.50455 -0.00000 0.50455
									}
								}
							}
						}
					}
				}
				JOINT RightShoulder
				{
					OFFSET 0 0 0
					CHANNELS 3 Zrotation Yrotation Xrotation
					JOINT RightArm
					{
						OFFSET -3.24731 1.15872 -0.32221
						CHANNELS 3 Zrotation Yrotation Xrotation
						JOINT RightForeArm
						{
							OFFSET -5.35200 -0.00000 0.00000
							CHANNELS 3 Zrotation Yrotation Xrotation
							JOINT RightHand
							{
								OFFSET -3.43721 -0.00000 -0.00000
								CHANNELS 3 Zrotation Yrotation Xrotation
								JOINT RightFingerBase
								{
									OFFSET 0 0 0
									CHANNELS 3 Zrotation Yrotation Xrotation
									JOINT RightHandIndex1
									{
										OFFSET -0.72009 -0.00000 0.00000
										CHANNELS 3 Zrotation Yrotation Xrotation
										End Site
										{
											OFFSET -0.58056 -0.00000 0.00000
										}
									}
								}
								JOINT RThumb
								{
									OFFSET 0 0 0
									CHANNELS 3 Zrotation Yrotation Xrotation
									End Site
									{
										OFFSET -0.58942 -0.00000 0.58942
									}
								}
							}
						}
					}
				}
			}
		}
	}
}
MOTION
Frames: 7
Frame Time: 0.0192308
0.00 0.00 0.00 0 0 0 0 0 0 -21 0 0 0 0 0 0 0 0 0 0 0 0 0 0 21 0 0 0 0 0 0 0 0 0 0 0 0 0 0 0 0 0 0 0 0 0 0 -16 0 0 21 0 0 11 0 0 0 -8 0 0 0 0 0 0 0 0 0 0 0 0 0 0 0 0 0 0 0 0 8 0 0 0 0 0 0 0 0 0 0 0 0 0 0 0 0 0
0.00 0.00 0.00 -7.6131 4.8637 -0.0170 0.0000 0.0000 0.0000 -6.8080 -5.1368 -34.5762 4.2088 12.4332 37.2823 0.2152 -4.6426 -8.3775 0.4867 -4.4734 -12.4123 0.0000 0.0000 0.0000 32.5279 -5.9446 2.2878 -1.0247 -6.4394 18.0648 -1.3094 1.4219 -21.2165 -0.0604 -1.5858 4.3622 8.6355 1.0302 5.7506 3.4877 1.7302 4.2328 -1.2934 1.0099 1.3280 -8.0475 1.1309 -11.6161 0.1421 4.3152 39.7457 2.2252 0.6976 15.9598 0.0000 0.0000 0.0000 -92.4794 6.8768 13.7686 13.7160 -22.3273 -2.7193 -0.0000 0.0000 -3.9766 21.3096 22.3555 8.4392 -7.1250 0.0000 -0.0000 -7.9816 53.6228 -1.7008 0.0000 0.0000 0.0000 85.5140 -2.5897 15.5034 -13.8965 22.5866 -2.7882 0.0000 -0.0000 -10.6172 -21.5374 13.4119 -5.2304 7.1250 -0.0000 -0.0000 3.9985 -15.6252 2.7807
0.00 0.00 0.00 -6.2310 -0.4250 1.3981 0.0000 0.0000 0.0000 -11.0290 -3.1662 -25.9514 2.2498 9.3682 26.9540 0.0026 -2.7364 -2.0693 0.3931 4.0259 11.1495 0.0000 0.0000 0.0000 25.0680 -5.4383 9.7872 -2.2648 -9.3972 27.0460 -0.1573 2.8780 -7.0502 -0.2416 3.1634 -8.7339 7.1390 2.8655 3.4871 2.2151 3.9659 2.9620 -1.7746 2.0833 1.4387 -7.3125 1.3813 -11.0227 -0.5182 4.8301 41.3551 1.9086 0.8651 16.7059 -0.0000 -0.0000 0.0000 -94.0011 10.4848 15.5281 14.9309 -24.0498 -3.1977 -0.0000 0.0000 -3.3133 17.0035 23.4721 6.9444 -7.1250 0.0000 -0.0000 -12.7988 53.9456 -2.8505 -0.0000 -0.0000 0.0000 88.2668 -1.2743 16.3157 -14.3869 23.2851 -2.9794 0.0000 -0.0000 -9.1161 -21.6816 14.5396 -5.6999 7.1250 -0.0000 -0.0000 3.9535 -14.4116 2.8520
0.00 0.00 0.00 -4.5786 -0.3457 0.4327 0.0000 0.0000 0.0000 -14.4957 0.3874 -22.5094 2.0333 8.9351 25.5926 -0.0541 -6.0609 -2.5254 0.2236 3.0439 8.4011 0.0000 0.0000 0.0000 21.4695 -5.1730 2.5905 -5.2977 -13.7114 42.0935 -0.0458 1.2996 4.7438 -0.1167 -2.2028 6.0664 4.7703 2.4210 4.0607 1.9300 3.3649 2.8744 -0.7877 1.7343 0.8444 -7.5018 1.7799 -11.3737 -0.3821 5.4816 41.5537 2.1182 1.0997 16.8624 -0.0000 0.0000 0.0000 -92.5037 9.6545 18.4169 18.1975 -28.4093 -4.6428 -0.0000 0.0000 -4.7979 16.9741 24.6103 7.2442 -7.1250 0.0000 -0.0000 -13.3632 55.0695 -3.3483 -0.0000 0.0000 0.0000 88.0119 -0.9355 18.6043 -15.9909 25.5083 -3.6420 0.0000 -0.0000 -8.7848 -21.1713 13.0383 -4.9935 7.1250 -0.0000 -0.0000 4.2352 -16.0587 2.9064
0.00 0.00 0.00 -2.5411 1.3413 -0.6089 0.0000 0.0000 0.0000 -17.8602 2.6513 -17.0721 1.5137 7.7698 22.0172 -0.1199 -8.1103 -2.7020 0.1374 2.3895 6.5833 0.0000 0.0000 0.0000 18.1621 -5.0617 -7.3507 -9.6282 -17.1954 58.2382 0.0228 -2.9023 -2.2502 -0.0322 -1.1591 3.1868 1.9795 1.5560 4.6912 1.5701 2.1488 2.9616 0.4112 1.0882 0.4264 -7.5380 2.1963 -11.5024 -1.0883 6.4752 41.9061 1.9796 1.3788 17.1046 0.0000 0.0000 0.0000 -90.2711 6.1424 17.5594 21.4414 -32.3400 -6.2844 -0.0000 0.0000 -4.9404 16.3531 23.2964 6.6194 -7.1250 0.0000 -0.0000 -13.3711 53.6505 -2.8842 0.0000 0.0000 0.0000 88.0494 1.6473 19.7892 -17.6489 27.7052 -4.3848 0.0000 -0.0000 -11.8916 -22.5738 14.0206 -5.7513 7.1250 -0.0000 -0.0000 3.3185 -14.8650 2.3601
0.00 0.00 0.00 -32.0160 78.0358 -30.1013 0.0000 0.0000 0.0000 -17.1026 -0.2982 -14.6942 3.2309 11.0598 32.4818 1.0604 -3.8346 -18.5605 0.8649 5.9302 16.5820 0.0000 0.0000 0.0000 26.1341 -14.1093 -10.7370 -3.2786 -11.1329 32.7294 -1.3767 -2.1670 -23.0409 -0.1233 2.2635 -6.2345 5.8411 2.6356 3.4978 3.0377 3.7405 2.6382 -0.2298 1.9638 0.9282 -8.9106 -2.4052 -11.2159 1.6338 0.3405 39.8283 2.5539 -0.3409 16.1604 0.0000 0.0000 0.0000 -93.8614 8.4830 14.0142 17.1221 -27.0184 -4.1426 -0.0000 0.0000 -4.7412 17.3882 20.6759 6.3095 -7.1250 0.0000 -0.0000 -11.2726 51.2128 -1.7440 0.0000 0.0000 0.0000 81.8618 -0.4837 13.7093 -18.4406 28.7176 -4.7590 0.0000 -0.0000 -14.2316 -24.0033 13.1234 -5.7732 7.1250 -0.0000 -0.0000 2.2879 -15.6708 1.5862
0.00 0.00 0.00 -51.3398 86.5808 -51.8706 0.0000 0.0000 0.0000 -21.9698 1.3549 -5.7146 1.5341 7.8195 22.1673 0.5309 -7.5422 -13.2252 0.8553 5.8981 16.4890 0.0000 0.0000 0.0000 16.5439 -4.9243 -28.3497 -14.5131 -19.2623 73.7654 -0.0055 -5.4829 -7.9894 -0.7011 -5.3522 14.9159 -0.3179 1.9046 5.7045 1.6136 2.6002 3.0148 1.6838 1.3161 -0.1834 -8.9657 -2.7006 -11.3699 1.3884 0.2047 40.1061 2.4536 -0.4083 16.3693 0.0000 -0.0000 0.0000 -91.3160 7.1001 21.1247 20.6112 -31.3717 -5.8462 -0.0000 0.0000 -4.9958 16.7451 19.5873 5.7597 -7.1250 0.0000 -0.0000 -11.5027 50.0124 -1.4380 0.0000 -0.0000 0.0000 84.1592 -0.3384 16.8209 -24.3321 35.5135 -7.8987 0.0000 -0.0000 -11.5237 -23.0651 15.2044 -6.3722 7.1250 -0.0000 -0.0000 3.0551 -13.5403 2.2582
